<?xml version="1.0" encoding="utf-8"?>
<!-- Generator: Adobe Illustrator 24.1.1, SVG Export Plug-In . SVG Version: 6.00 Build 0)  -->
<svg version="1.1" id="Layer_1" xmlns="http://www.w3.org/2000/svg" xmlns:xlink="http://www.w3.org/1999/xlink" x="0px" y="0px"
	 viewBox="0 0 512 512" style="enable-background:new 0 0 512 512;" xml:space="preserve">
<style type="text/css">
	.st0{fill:#4A4A55;}
	.st1{fill:#FF3E00;}
	.st2{fill:#FFFFFF;}
</style>
<g>
	<path class="st0" d="M166.9,290.5c-5.4,0.1-10.8-1.4-15.3-4.3c-4.3-2.8-7.4-7-9-11.9l9.3-3.4c1.3,3,3.4,5.5,6.1,7.4
		c2.7,1.8,6,2.8,9.2,2.7c3.2,0.2,6.3-0.8,8.8-2.7c2.2-1.9,3.5-4.7,3.3-7.6c0-1.3-0.3-2.7-0.9-3.9c-0.5-1.1-1.2-2-2-2.9
		c-1-1-2.2-1.7-3.5-2.3c-1.6-0.8-2.9-1.4-4-1.8c-1-0.4-2.6-1-4.6-1.7c-2.5-0.9-4.4-1.6-5.7-2.1c-1.7-0.7-3.4-1.6-5-2.5
		c-1.7-0.9-3.3-2.1-4.7-3.5c-1.2-1.4-2.1-2.9-2.8-4.6c-2.7-6.6-0.9-14.1,4.5-18.8c3.8-3.4,9-5,15.5-5c5.5,0,9.9,1.2,13.5,3.6
		c3.4,2.3,5.9,5.7,7.1,9.6l-9.1,3c-0.9-2.1-2.5-3.8-4.4-4.9c-2.4-1.3-5.1-2-7.8-1.9c-2.7-0.2-5.3,0.6-7.5,2.1
		c-1.8,1.4-2.8,3.6-2.7,5.9c0,1.8,0.8,3.4,2.1,4.6c1.3,1.2,2.8,2.2,4.4,3c1.5,0.6,3.8,1.5,7,2.6c1.9,0.7,3.3,1.2,4.2,1.6
		c0.9,0.3,2.3,0.9,4,1.8c1.4,0.6,2.8,1.4,4.1,2.2c1.2,0.8,2.3,1.7,3.3,2.7c1.1,1,2.1,2.2,2.9,3.5c0.7,1.4,1.3,2.8,1.7,4.3
		c0.5,1.8,0.7,3.6,0.7,5.4c0,6.2-2.1,11.1-6.4,14.6C179.1,288.7,173.6,290.5,166.9,290.5z M228,289.3l-22.9-66.7h10.7l15.1,46.5
		c0.8,2.5,1.5,5,2.1,7.6c0.6-2.6,1.3-5.1,2.1-7.6l14.9-46.5h10.6l-22.8,66.7H228z M280.8,289.3v-66.7h41.3v9.3h-31.4v18.3H311v9.3
		h-20.3V280h33.5v9.3H280.8z M349.5,289.3v-66.7h9.9v57.1h32.6v9.5H349.5z M429.3,232.2v57.1h-9.9v-57.1h-18.9v-9.5h47.6v9.5H429.3z
		 M468.6,289.3v-66.7h41.3v9.3h-31.4v18.3h20.3v9.3h-20.3V280H512v9.3H468.6z"/>
	<path class="st1" d="M97.5,210c-11.6-16.6-34.6-21.6-51.2-11l-29.1,18.6c-8,5-13.4,13.1-15.1,22.4c-1.4,7.7-0.2,15.7,3.5,22.6
		c-2.5,3.8-4.2,8-5,12.5c-1.7,9.4,0.5,19.1,6.1,26.9c11.6,16.6,34.6,21.6,51.2,11l29.1-18.6c8-5,13.4-13.1,15.1-22.4
		c1.4-7.7,0.2-15.7-3.5-22.6c2.5-3.8,4.2-8,5-12.5C105.3,227.5,103.1,217.8,97.5,210"/>
	<path class="st2" d="M43.5,303.6c-9.4,2.4-19.3-1.2-24.8-9.2c-3.4-4.7-4.7-10.5-3.7-16.2c0.2-0.9,0.4-1.8,0.7-2.7l0.5-1.7l1.5,1.1
		c3.4,2.5,7.3,4.5,11.4,5.7l1.1,0.3l-0.1,1.1c-0.1,1.5,0.3,3.1,1.2,4.3c1.7,2.4,4.7,3.5,7.5,2.8c0.6-0.2,1.2-0.4,1.8-0.8l29.1-18.6
		c1.4-0.9,2.4-2.4,2.7-4.1c0.3-1.7-0.1-3.5-1.1-4.9c-1.7-2.4-4.7-3.5-7.5-2.8c-0.6,0.2-1.2,0.4-1.8,0.8l-11.1,7.1
		c-1.8,1.2-3.8,2-5.9,2.6c-9.4,2.4-19.3-1.2-24.8-9.2c-3.4-4.7-4.7-10.5-3.7-16.2c1-5.6,4.3-10.5,9.1-13.5L54.7,211
		c1.8-1.2,3.8-2,5.9-2.6c9.4-2.4,19.3,1.2,24.8,9.2c3.4,4.7,4.7,10.5,3.7,16.2c-0.2,0.9-0.4,1.8-0.7,2.7l-0.5,1.7l-1.5-1.1
		c-3.4-2.5-7.3-4.5-11.4-5.7l-1.1-0.3L74,230c0.1-1.5-0.3-3.1-1.2-4.3c-1.7-2.4-4.7-3.5-7.5-2.8c-0.6,0.2-1.2,0.4-1.8,0.8
		l-29.1,18.6c-1.4,0.9-2.4,2.4-2.7,4.1c-0.3,1.7,0.1,3.5,1.1,4.9c1.7,2.4,4.7,3.5,7.5,2.8c0.6-0.2,1.2-0.4,1.8-0.8l11.1-7.1
		c1.8-1.2,3.8-2,5.9-2.6c9.4-2.4,19.3,1.2,24.8,9.2c3.3,4.7,4.7,10.5,3.7,16.2c-1,5.6-4.3,10.5-9.1,13.5L49.4,301
		C47.6,302.1,45.6,303,43.5,303.6"/>
</g>
</svg>
